{"accessors":[{"name":"099_PL_neutral_1_0_positions","componentType":5126,"count":560,"min":[-1.5417100191116333,0.6939560174942017,-1.8729510307312012],"max":[-0.24719299376010895,3.678694009780884,0.03346800059080124],"type":"VEC3","bufferView":0,"byteOffset":0},{"name":"099_PL_neutral_1_0_normals","componentType":5126,"count":560,"min":[-0.9887955784797668,-0.9887955784797668,-1],"max":[0.9887955784797668,0.9887955784797668,1],"type":"VEC3","bufferView":1,"byteOffset":0},{"name":"099_PL_neutral_1_0_indices","componentType":5123,"count":1320,"min":[0],"max":[559],"type":"SCALAR","bufferView":2,"byteOffset":0},{"name":"z_freie_Ebene_10_1_0_positions","componentType":5126,"count":128,"min":[-1.4583289623260498,0.33061501383781433,0.03346800059080124],"max":[0.11614800244569778,1.9050920009613037,1.333467960357666],"type":"VEC3","bufferView":0,"byteOffset":6720},{"name":"z_freie_Ebene_10_1_0_normals","componentType":5126,"count":128,"min":[-0.9706533551216125,-0.9706533551216125,-0.46135297417640686],"max":[0.9706533551216125,0.9706533551216125,0.46135297417640686],"type":"VEC3","bufferView":1,"byteOffset":6720},{"name":"z_freie_Ebene_10_1_0_indices","componentType":5123,"count":192,"min":[0],"max":[127],"type":"SCALAR","bufferView":2,"byteOffset":2640}],"asset":{"generator":"obj2gltf","version":"2.0"},"buffers":[{"name":"input","byteLength":19536,"uri":"data:application/octet-stream;base64,"}],"bufferViews":[{"name":"bufferView_0","buffer":0,"byteLength":8256,"byteOffset":0,"byteStride":12,"target":34962},{"name":"bufferView_1","buffer":0,"byteLength":8256,"byteOffset":8256,"byteStride":12,"target":34962},{"name":"bufferView_2","buffer":0,"byteLength":3024,"byteOffset":16512,"target":34963}],"materials":[{"name":"diffu.dgn_3D-Modell-000_099_PL_neutral-RGB(255,255,255)_","pbrMetallicRoughness":{"baseColorFactor":[0.5,0.5,0.5,1],"metallicFactor":0,"roughnessFactor":1},"emissiveFactor":[0,0,0],"alphaMode":"OPAQUE","doubleSided":false},{"name":"diffu.dgn_3D-Modell-000_z_freie_Ebene_10-RGB(255,255,255)-Transparent(0.400)_","pbrMetallicRoughness":{"baseColorFactor":[0.5,0.5,0.5,1],"metallicFactor":0,"roughnessFactor":1},"emissiveFactor":[0,0,0],"alphaMode":"OPAQUE","doubleSided":false}],"meshes":[{"name":"099_PL_neutral_1","primitives":[{"attributes":{"POSITION":0,"NORMAL":1},"indices":2,"material":0,"mode":4}]},{"name":"z_freie_Ebene_10_1","primitives":[{"attributes":{"POSITION":3,"NORMAL":4},"indices":5,"material":1,"mode":4}]}],"nodes":[{"name":"099_PL_neutral","mesh":0},{"name":"z_freie_Ebene_10","mesh":1}],"scene":0,"scenes":[{"nodes":[0,1]}]}
